<svg xmlns="http://www.w3.org/2000/svg" width="622.667" height="622.667" preserveAspectRatio="xMidYMid meet" version="1.0" viewBox="0 0 467 467"><metadata>Created by potrace 1.11, written by Peter Selinger 2001-2013</metadata><g fill="#000" stroke="none"><path d="M2065 4659 c-790 -95 -1472 -577 -1826 -1289 -100 -203 -168 -411 -211 -647 -20 -112 -23 -161 -23 -388 0 -228 3 -276 24 -390 162 -906 804 -1617 1684 -1864 219 -61 335 -76 622 -76 227 0 276 3 388 23 903 162 1610 796 1862 1670 65 227 80 345 80 637 0 228 -3 276 -24 390 -177 991 -927 1741 -1916 1916 -138 24 -520 35 -660 18z m-360 -1289 c257 -24 449 -96 577 -218 91 -86 131 -169 148 -308 18 -142 -18 -249 -131 -383 l-57 -68 50 -38 c140 -107 228 -283 228 -455 -1 -350 -222 -543 -692 -605 -84 -11 -221 -15 -545 -15 l-433 0 0 1050 0 1050 373 0 c204 0 422 -5 482 -10z m2354 -182 c13 -101 25 -198 28 -215 l5 -33 -426 0 -426 0 0 -215 0 -215 319 0 319 0 6 -27 c5 -25 25 -188 43 -345 l6 -58 -347 0 -346 0 0 -400 0 -400 -280 0 -280 0 0 1045 0 1045 678 0 679 0 22 -182z" transform="translate(0.000000,467.000000) scale(0.100000,-0.100000)"/><path d="M1400 2761 l0 -181 93 0 c235 0 367 60 367 168 0 72 -40 125 -125 164 -42 19 -72 23 -192 26 l-143 4 0 -181z" transform="translate(0.000000,467.000000) scale(0.100000,-0.100000)"/><path d="M1400 1931 l0 -211 158 0 c233 0 327 31 372 124 47 97 3 207 -103 264 -50 26 -58 27 -239 30 l-188 4 0 -211z" transform="translate(0.000000,467.000000) scale(0.100000,-0.100000)"/></g></svg>